PathFileType	4	(X/Y/Z)	C:/Users/opensim2020/Desktop/walking_exp_matlab/subject02_walking05_straight_01.trc																																																																																																																												
DataRate	CameraRate	NumFrames	NumMarkers	Units	OrigDataRate	OrigDataStartFrame	OrigNumFrames																																																																																																																								
100	100	4	42	mm	100	768	190																																																																																																																								
Frame#	Time	LFHD			RFHD			LBHD			RBHD			C7			T10			CLAV			STRN			RBAK			LSHO			LUPA			LELB			LFRM			LWRA			LWRB			LFIN			RSHO			RUPA			RELB			RFRM			RWRA			RWRB			RFIN			LASI			RASI			LPSI			RPSI			LTHI			LKNE			LTIB			LANK			LHEE			LTOE			RTHI			RKNE			RTIB			RANK			RHEE			RTOE			*39			*40			*41		
		X1	Y1	Z1	X2	Y2	Z2	X3	Y3	Z3	X4	Y4	Z4	X5	Y5	Z5	X6	Y6	Z6	X7	Y7	Z7	X8	Y8	Z8	X9	Y9	Z9	X10	Y10	Z10	X11	Y11	Z11	X12	Y12	Z12	X13	Y13	Z13	X14	Y14	Z14	X15	Y15	Z15	X16	Y16	Z16	X17	Y17	Z17	X18	Y18	Z18	X19	Y19	Z19	X20	Y20	Z20	X21	Y21	Z21	X22	Y22	Z22	X23	Y23	Z23	X24	Y24	Z24	X25	Y25	Z25	X26	Y26	Z26	X27	Y27	Z27	X28	Y28	Z28	X29	Y29	Z29	X30	Y30	Z30	X31	Y31	Z31	X32	Y32	Z32	X33	Y33	Z33	X34	Y34	Z34	X35	Y35	Z35	X36	Y36	Z36	X37	Y37	Z37	X38	Y38	Z38	X39	Y39	Z39	X40	Y40	Z40	X41	Y41	Z41	X42	Y42	Z42
																																																																																																																															
119	1.18	-50.66978	1748.12903	-1069.34412	-70.51804	1715.37402	-930.43567	-173.86191	1667.98706	-1104.39221	-204.96942	1633.39185	-968.55023	-237.05757	1526.25916	-1039.98865	-295.3251	1251.11829	-1030.05371	-100.15794	1454.83521	-1054.09485	-51.14376	1281.70728	-1052.60913	-295.61423	1352.41187	-975.68445	-165.32112	1504.98376	-1221.82007	-169.54637	1308.0531	-1310.2373	-156.0181	1165.53748	-1330.46118	-92.99805	1045.72803	-1335.94067	9.23815	960.36078	-1292.30225	-29.75146	939.92462	-1328.54932	16.59369	891.56604	-1324.43921	-153.61398	1484.34668	-855.99701	-195.99745	1296.21399	-773.44037	-196.49466	1150.02002	-758.78436	-180.24142	1032.16223	-735.94189	-140.98009	901.57013	-747.52863	-191.73811	903.09485	-720.40234	-162.12804	836.83331	-713.59424	-82.59116	983.2287	-1186.24719	-43.15442	983.00061	-931.52368	-276.46536	1027.95508	-1071.99121	-265.32544	1033.99426	-957.68658	-138.03859	672.86969	-1245.94543	-150.1777	489.27005	-1235.3645	-299.18292	382.25119	-1209.19153	-431.26538	206.89059	-1170.13208	-455.90112	198.8878	-1107.31116	-361.45831	77.71536	-1223.65222	-79.08618	678.10004	-856.09235	-66.42864	468.9436	-903.36261	-97.61261	282.0101	-898.08356	-112.11053	90.8119	-939.64587	-148.33025	38.07433	-994.55957	42.45029	38.08376	-934.38068	-168.37596	1798.87732	-989.50696	2845.8916	1033.85852	-3357.17432	NaN	NaN	NaN
120	1.19	-42.08348	1749.66833	-1068.88879	-61.46964	1717.21509	-929.63611	-165.07338	1669.06506	-1103.59814	-195.62848	1634.43005	-967.36041	-228.01199	1527.61328	-1038.66113	-286.52344	1252.67566	-1028.01404	-91.06625	1456.07532	-1053.28723	-42.34862	1282.89099	-1051.98621	-286.47742	1354.24976	-973.51849	-157.12119	1506.13367	-1220.68689	-163.00516	1308.83618	-1308.63867	-150.80219	1166.20679	-1328.31494	-90.06809	1045.63293	-1334.01526	10.5418	957.95563	-1290.62378	-28.47146	938.56494	-1327.20752	16.82244	889.07086	-1322.84607	-143.75285	1486.01917	-855.10168	-184.63916	1297.53748	-771.86383	-183.48354	1151.61365	-756.87177	-166.40155	1033.73157	-734.48065	-125.81985	903.75885	-746.4137	-176.40565	904.46124	-719.12091	-145.42297	838.80286	-712.21899	-74.45951	985.18323	-1185.73376	-34.87859	984.31348	-930.21027	-268.02008	1029.50049	-1070.16504	-256.84152	1035.10193	-956.09344	-124.02756	675.05975	-1245.36951	-132.60297	491.27005	-1235.20105	-279.56888	382.28098	-1207.49854	-408.52234	204.52194	-1168.19824	-433.02109	195.44223	-1105.4187	-334.73462	78.06929	-1222.66687	-75.08634	678.17627	-855.47357	-65.00482	468.90771	-902.45929	-98.02419	282.27716	-897.75397	-111.98845	90.90437	-939.83484	-148.34242	38.11518	-994.70355	42.41096	38.02029	-934.3067	-159.98335	1800.24402	-989.19647	2845.15405	1033.87366	-3360.24756	NaN	NaN	NaN
121	1.2	-33.5947	1751.09241	-1068.53003	-52.69783	1718.86487	-929.20325	-156.3317	1670.00598	-1102.9375	-186.63284	1635.35095	-966.45935	-219.02911	1528.73254	-1037.59045	-277.66629	1254.09668	-1026.03955	-82.06057	1457.22168	-1052.58667	-33.63517	1284.00745	-1051.28613	-277.43869	1355.89026	-971.65625	-148.72992	1507.19958	-1219.81738	-156.41057	1309.56689	-1307.15039	-145.89008	1166.79968	-1326.31396	-87.10812	1045.20935	-1332.66516	11.85329	955.72681	-1289.39465	-27.53457	937.1109	-1325.99609	16.67756	886.73431	-1321.72058	-133.77596	1487.84692	-854.31104	-172.49858	1299.26978	-769.95447	-171.11078	1153.09143	-755.08557	-151.94373	1035.35388	-732.95068	-110.61789	905.96637	-745.63892	-160.61536	905.90234	-717.75476	-128.63428	841.0307	-710.9964	-66.11153	987.17328	-1184.80469	-26.81725	985.48779	-928.74231	-259.6362	1030.73633	-1068.69202	-248.4117	1036.0321	-954.7218	-110.32176	677.53235	-1245.20032	-115.27386	493.2363	-1234.9259	-259.91666	381.73587	-1206.15491	-384.76364	200.90375	-1166.4801	-409.32361	191.00575	-1103.72498	-307.15945	77.63943	-1221.7135	-71.71297	678.33221	-855.00549	-63.13915	468.8786	-901.98163	-97.79901	282.46564	-897.39783	-111.98522	90.89714	-940.07123	-148.46524	38.24825	-994.88702	42.34097	38.00348	-934.21332	-151.39409	1801.3783	-988.63348	2845.1936	1033.9259	-3360.31567	NaN	NaN	NaN
122	1.21	-25.11702	1752.37891	-1068.31604	-43.81338	1720.43848	-928.91473	-147.70338	1670.61597	-1102.33081	-177.81799	1636.30676	-966.14941	-210.03149	1530.052	-1036.28394	-268.82327	1255.46997	-1024.19824	-73.05424	1458.25647	-1051.86011	-25.00232	1284.97681	-1050.53906	-268.55927	1357.49414	-969.87317	-140.5388	1507.91016	-1218.76062	-149.86252	1310.1969	-1305.68103	-141.20212	1167.56787	-1324.62537	-84.51205	1044.91174	-1331.66711	12.74377	953.20959	-1288.32239	-26.99394	935.56122	-1324.9646	16.0814	884.1347	-1320.73706	-123.73335	1489.35754	-853.4187	-161.1886	1300.79077	-768.43597	-158.42731	1154.49329	-753.2251	-137.95721	1036.98035	-731.65424	-94.31686	908.27209	-744.7204	-144.45172	907.38721	-716.47546	-111.40195	843.06775	-709.92114	-56.76471	989.23419	-1183.49194	-19.2093	986.53613	-927.28705	-251.14297	1032.25879	-1067.58899	-240.60789	1036.98718	-953.53632	-96.92718	679.89441	-1245.03271	-98.2452	495.15091	-1234.56335	-240.27016	380.49933	-1205.19678	-360.73138	196.70634	-1165.0459	-384.99902	185.77074	-1102.34998	-278.88159	76.64431	-1221.00391	-68.11639	678.26227	-854.79388	-61.0915	468.67807	-901.41644	-96.85344	282.58279	-896.90802	-111.95689	91.01157	-940.04877	-148.55104	38.28659	-994.92639	42.29031	38.00508	-934.12006	-143.0891	1802.32813	-988.47638	2845.2749	1033.68762	-3360.33813	NaN	NaN	NaN
